# xmcd
#
# Track frame offsets:
#	150
#	26747
#	40432
#	51807
#	69600
#	79045
#	90480
#	114072
#	126425
#	138207
#	157325
#
# Disc length: 2384 seconds
#
# Revision: 1
# Processed by: cddbd v1.5.1PL0 Copyright (c) Steve Scherf et al.
# Submitted via: audiograbber 1.83.01
#
DISCID=92094e0b
DTITLE=Harry Slinger - Uit Stilte Geboren
DYEAR=1992
DGENRE=Pop-Folk
TTITLE0=Tevens het begin
TTITLE1=Volmaakt voor jou
TTITLE2=Eet je boterham op
TTITLE3=Het verleden
TTITLE4=Altijd wel iemand
TTITLE5=Chippendale
TTITLE6=Geen medicijn
TTITLE7=Geen enkele kans
TTITLE8=Ik heb een idee
TTITLE9=Tot het einde toe
TTITLE10=Zondagochtend
EXTD=
EXTT0=
EXTT1=
EXTT2=
EXTT3=
EXTT4=
EXTT5=
EXTT6=
EXTT7=
EXTT8=
EXTT9=
EXTT10=
PLAYORDER=
